<svg width="254" height="36" viewBox="0 0 254 36" fill="none" xmlns="http://www.w3.org/2000/svg">
<rect width="254" height="36" fill="#E5E5E5"/>
<g id="Home">
<rect width="1440" height="10419" transform="translate(0 -855.5)" fill="#FDFDFD"/>
<g id="Empresas que confiam">
<g id="Frame 19">
<g id="Logo" clip-path="url(#clip0_2867_1628)">
<g id="logogram">
<path id="Vector" d="M38.7 0C45.1617 5.79849e-07 50.4 5.23827 50.4 11.7C50.4 18.1617 45.1617 23.4 38.7 23.4H31.036L43.636 36H28.364L14.182 21.818C13.2048 20.8408 12.6 19.4912 12.6 18C12.6 15.0177 15.0177 12.6 18 12.6H38.7C39.1971 12.6 39.6 12.1971 39.6 11.7C39.6 11.2029 39.1971 10.8 38.7 10.8H18C14.0235 10.8 10.8 14.0235 10.8 18C10.8 20.1511 11.7434 22.0812 13.239 23.4H13.2188L25.8187 36H18C8.05888 36 0 27.9411 0 18C0 8.05888 8.05887 0 18 0H38.7Z" fill="#5A5757"/>
<path id="Vector_2" d="M50.4002 25.1999V35.9999H46.1815L35.3815 25.1999H50.4002Z" fill="#5A5757"/>
</g>
<g id="logotype">
<path id="Vector_3" d="M245.369 7.47363L245.504 7.51927C247.253 7.56491 248.778 8.79716 249.226 10.4858L249.271 10.6683L253.8 29.3803H247.791L245.101 18.2444L242.993 25.0446C242.365 26.9158 240.661 28.2394 238.689 28.2394C236.806 28.2394 235.101 27.0071 234.474 25.2272L234.384 25.0446L232.277 18.2444L229.586 29.3803H223.623L228.106 10.6683L228.151 10.4858C228.645 8.70589 230.214 7.47363 232.052 7.47363L232.187 7.51927C233.846 7.56491 235.281 8.66025 235.864 10.2119L235.909 10.3489L238.689 19.2485L241.469 10.3489L241.514 10.2119C242.097 8.56897 243.621 7.47363 245.369 7.47363Z" fill="#5A5757"/>
<path id="Vector_4" d="M212.605 29.3803C206.641 29.3803 201.843 24.497 201.843 18.4269V7.47363H207.628V18.4269C207.628 21.2109 209.87 23.4929 212.605 23.4929C215.295 23.4929 217.537 21.2109 217.537 18.4269V7.47363H223.366V18.4269C223.366 24.497 218.524 29.3803 212.605 29.3803Z" fill="#5A5757"/>
<path id="Vector_5" d="M200.79 7.47363V13.4067C198.279 13.4067 196.082 15.0953 195.364 17.5598L194.333 21.0284C192.898 26.0031 188.414 29.3803 183.347 29.3803V23.4929C185.814 23.4929 188.056 21.8043 188.773 19.3397L189.759 15.8712C191.194 10.8966 195.678 7.47363 200.79 7.47363Z" fill="#5A5757"/>
<path id="Vector_6" d="M177.537 16.9665C178.48 16.9665 179.286 16.1907 179.286 15.1866C179.286 14.2282 178.48 13.4067 177.537 13.4067H171.126V16.9665H177.537ZM177.537 7.47363C181.708 7.47363 185.115 10.9422 185.115 15.1866C185.115 19.4311 181.708 22.8996 177.537 22.8996H171.126V29.3803H165.341V12.8134C165.341 9.89252 167.673 7.47363 170.542 7.47363H177.537Z" fill="#5A5757"/>
<path id="Vector_7" d="M156.723 7.47363H162.507V29.3803H156.723V7.47363Z" fill="#5A5757"/>
<path id="Vector_8" d="M143.679 13.1331H142.514C139.599 13.1331 137.267 15.5064 137.267 18.4272C137.267 21.3938 139.599 23.767 142.514 23.767H143.679C146.594 23.767 148.925 21.3938 148.925 18.4272C148.925 15.5064 146.594 13.1331 143.679 13.1331ZM142.514 7.20007H143.679C149.778 7.20007 154.71 12.2204 154.71 18.4272C154.71 24.6798 149.778 29.7001 143.679 29.7001H142.514C136.415 29.7001 131.483 24.6798 131.483 18.4272C131.483 12.2204 136.415 7.20007 142.514 7.20007Z" fill="#5A5757"/>
<path id="Vector_9" d="M129.025 13.4067H117.726C114.991 13.4067 112.749 15.6886 112.749 18.4269C112.749 21.2109 114.991 23.4929 117.726 23.4929H123.331C123.914 23.4016 124.407 22.8996 124.407 22.2607V21.713H115.664V15.78H125.394C128.084 15.78 130.192 17.9706 130.192 20.6633V22.2607C130.192 26.1399 127.187 29.289 123.376 29.3803H117.726C111.762 29.3803 106.964 24.497 106.964 18.4269C106.964 12.4026 111.762 7.47363 117.726 7.47363H129.025V13.4067Z" fill="#5A5757"/>
<path id="Vector_10" d="M94.9077 13.1331H93.7413C90.8271 13.1331 88.4952 15.5064 88.4952 18.4272C88.4952 21.3938 90.8271 23.767 93.7413 23.767H94.9077C97.8219 23.767 100.154 21.3938 100.154 18.4272C100.154 15.5064 97.8219 13.1331 94.9077 13.1331ZM93.7413 7.20007H94.9077C101.005 7.20007 105.938 12.2204 105.938 18.4272C105.938 24.6798 101.005 29.7001 94.9077 29.7001H93.7413C87.6433 29.7001 82.7109 24.6798 82.7109 18.4272C82.7109 12.2204 87.6433 7.20007 93.7413 7.20007Z" fill="#5A5757"/>
<path id="Vector_11" d="M63.9001 20.5264V7.47363H69.6844V20.5264C69.6844 22.1694 70.9848 23.4929 72.599 23.4929H81.3428V29.3803H72.599C67.8012 29.3803 63.9001 25.4098 63.9001 20.5264Z" fill="#5A5757"/>
</g>
</g>
</g>
</g>
</g>
<defs>
<clipPath id="clip0_2867_1628">
<rect width="253.8" height="36" fill="white"/>
</clipPath>
</defs>
</svg>
