<svg width="197" height="83" viewBox="0 0 197 83" fill="none" xmlns="http://www.w3.org/2000/svg">
<g clip-path="url(#clip0_2955_4132)">
<mask id="mask0_2955_4132" style="mask-type:luminance" maskUnits="userSpaceOnUse" x="32" y="17" width="133" height="49">
<path d="M32 17.5H164.84V65.5H32V17.5Z" fill="white"/>
</mask>
<g mask="url(#mask0_2955_4132)">
<mask id="mask1_2955_4132" style="mask-type:luminance" maskUnits="userSpaceOnUse" x="32" y="17" width="133" height="49">
<path d="M32 17.5H164.84V65.5H32V17.5Z" fill="white"/>
</mask>
<g mask="url(#mask1_2955_4132)">
<path fill-rule="evenodd" clip-rule="evenodd" d="M60.4938 49.3609V62.435H63.9255C63.9255 62.435 65.8235 62.4143 66.9236 61.9069C68.0237 61.3995 69.7441 60.2303 69.7441 56.2335C69.7441 52.0362 68.7409 50.7308 66.6538 49.776C65.5814 49.2917 63.6833 49.3494 63.6833 49.3494L60.4938 49.3609ZM57.265 46.7041H65.5375C65.5375 46.7041 68.0329 46.8932 69.6888 48.0879C71.3447 49.2825 72.9844 51.5103 72.9844 55.9452C72.9844 60.3802 71.0656 62.864 69.2483 63.971C67.431 65.078 65.3576 65.1057 64.4744 65.1057H57.265V46.7041Z" fill="#DDDBDB"/>
<path d="M75.0623 46.7039H88.2932V49.5291H78.2564V54.2892H87.546V56.9137H78.2564V62.2804H88.4616V65.094H75.0623V46.7039ZM91.2152 46.7039H95.5948L100.572 61.1664L105.426 46.7039H109.76V65.094H106.734V50.8344L101.757 65.094H99.2295L94.1834 50.869V65.094H91.2152V46.7039ZM122.188 57.7785L119.354 49.7528L116.538 57.7785H122.188ZM117.739 46.7085H121.104L128.171 65.094H124.769L123.039 60.2001H115.687L113.969 65.094H110.643L117.739 46.7085ZM125.807 46.7039H140.717V49.5291H134.859V65.094H131.598V49.5291H125.807V46.7039ZM142.806 46.7039H146.069V65.094H142.806V46.7039ZM162.587 51.268C161.836 50.2994 160.819 49.5715 159.66 49.1739C157.896 48.6204 155.74 48.8188 154.284 50.1933C152.829 51.5678 152.262 53.6135 152.197 55.3916C152.133 57.1697 152.534 59.8934 153.978 61.3348C154.545 61.9195 155.243 62.3609 156.015 62.6228C156.786 62.8846 157.609 62.9593 158.415 62.8408C159.692 62.6629 160.892 62.1245 161.874 61.2887C162.196 61.016 162.485 60.7064 162.734 60.3662L164.842 61.9805C164.842 61.9805 164.404 62.7185 163.182 63.7241C162.172 64.5566 160.144 65.5068 157.852 65.5022C155.398 65.5022 153.373 64.7573 151.791 63.1844C150.209 61.6115 148.883 59.0539 149.005 55.6337C149.127 52.2136 150.486 49.8681 151.86 48.5559C153.235 47.2436 155.202 46.3188 157.753 46.305C160.216 46.2888 161.812 47.013 162.967 47.8248C163.694 48.3168 164.32 48.943 164.812 49.6698L162.587 51.268Z" fill="#DDDBDB"/>
<path d="M32 17.5H38.3998V65.5H32V17.5Z" fill="#DDDBDB"/>
</g>
</g>
</g>
<defs>
<clipPath id="clip0_2955_4132">
<rect width="132.84" height="48" fill="white" transform="translate(32 17.5)"/>
</clipPath>
</defs>
</svg>
